<?xml version="1.0" encoding="UTF-8" standalone="no"?> <svg width="64" height="64" viewBox="0 0 64 64" fill="none" xmlns="http://www.w3.org/2000/svg">
<path d="M60 60V35C60 34.7348 59.8946 34.4804 59.7071 34.2929C59.5196 34.1054 59.2652 34 59 34H58V32H60V30H30V3C30 2.73478 29.8946 2.48043 29.7071 2.29289C29.5196 2.10536 29.2652 2 29 2H5C4.73478 2 4.48043 2.10536 4.29289 2.29289C4.10536 2.48043 4 2.73478 4 3V60H2V62H62V60H60ZM16 60H12V56H16V60ZM22 60H18V56H22V60ZM28 60H24V55C24 54.7348 23.8946 54.4804 23.7071 54.2929C23.5196 54.1054 23.2652 54 23 54H11C10.7348 54 10.4804 54.1054 10.2929 54.2929C10.1054 54.4804 10 54.7348 10 55V60H6V4H28V60ZM54 32H56V34H54V32ZM50 32H52V34H50V32ZM46 32H48V34H46V32ZM42 32H44V34H42V32ZM38 32H40V34H38V32ZM34 32H36V34H34V32ZM30 32H32V34H30V32ZM30 42H34V44H30V42ZM30 52H34V54H30V52ZM58 60H30V56H58V60ZM36 54V52H40V54H36ZM42 54V52H46V54H42ZM48 54V52H52V54H48ZM58 54H54V52H58V54ZM58 50H30V46H58V50ZM36 44V42H40V44H36ZM42 44V42H46V44H42ZM48 44V42H52V44H48ZM58 44H54V42H58V44ZM58 40H30V36H58V40Z" fill="#fff"/>
<path d="M10 10H8V12H10V10Z" fill="#fff"/>
<path d="M14 10H12V12H14V10Z" fill="#fff"/>
<path d="M18 10H16V12H18V10Z" fill="#fff"/>
<path d="M10 6H8V8H10V6Z" fill="#fff"/>
<path d="M14 6H12V8H14V6Z" fill="#fff"/>
<path d="M18 6H16V8H18V6Z" fill="#fff"/>
<path d="M22 10H20V12H22V10Z" fill="#fff"/>
<path d="M22 6H20V8H22V6Z" fill="#fff"/>
<path d="M26 10H24V12H26V10Z" fill="#fff"/>
<path d="M26 6H24V8H26V6Z" fill="#fff"/>
<path d="M10 18H8V20H10V18Z" fill="#fff"/>
<path d="M14 18H12V20H14V18Z" fill="#fff"/>
<path d="M18 18H16V20H18V18Z" fill="#fff"/>
<path d="M10 14H8V16H10V14Z" fill="#fff"/>
<path d="M14 14H12V16H14V14Z" fill="#fff"/>
<path d="M18 14H16V16H18V14Z" fill="#fff"/>
<path d="M22 18H20V20H22V18Z" fill="#fff"/>
<path d="M22 14H20V16H22V14Z" fill="#fff"/>
<path d="M26 18H24V20H26V18Z" fill="#fff"/>
<path d="M26 14H24V16H26V14Z" fill="#fff"/>
<path d="M10 26H8V28H10V26Z" fill="#fff"/>
<path d="M14 26H12V28H14V26Z" fill="#fff"/>
<path d="M18 26H16V28H18V26Z" fill="#fff"/>
<path d="M10 22H8V24H10V22Z" fill="#fff"/>
<path d="M14 22H12V24H14V22Z" fill="#fff"/>
<path d="M18 22H16V24H18V22Z" fill="#fff"/>
<path d="M22 26H20V28H22V26Z" fill="#fff"/>
<path d="M22 22H20V24H22V22Z" fill="#fff"/>
<path d="M26 26H24V28H26V26Z" fill="#fff"/>
<path d="M26 22H24V24H26V22Z" fill="#fff"/>
<path d="M10 34H8V36H10V34Z" fill="#fff"/>
<path d="M14 34H12V36H14V34Z" fill="#fff"/>
<path d="M18 34H16V36H18V34Z" fill="#fff"/>
<path d="M10 30H8V32H10V30Z" fill="#fff"/>
<path d="M14 30H12V32H14V30Z" fill="#fff"/>
<path d="M18 30H16V32H18V30Z" fill="#fff"/>
<path d="M22 34H20V36H22V34Z" fill="#fff"/>
<path d="M22 30H20V32H22V30Z" fill="#fff"/>
<path d="M26 34H24V36H26V34Z" fill="#fff"/>
<path d="M26 30H24V32H26V30Z" fill="#fff"/>
<path d="M10 42H8V44H10V42Z" fill="#fff"/>
<path d="M14 42H12V44H14V42Z" fill="#fff"/>
<path d="M18 42H16V44H18V42Z" fill="#fff"/>
<path d="M10 38H8V40H10V38Z" fill="#fff"/>
<path d="M14 38H12V40H14V38Z" fill="#fff"/>
<path d="M18 38H16V40H18V38Z" fill="#fff"/>
<path d="M22 42H20V44H22V42Z" fill="#fff"/>
<path d="M22 38H20V40H22V38Z" fill="#fff"/>
<path d="M26 42H24V44H26V42Z" fill="#fff"/>
<path d="M26 38H24V40H26V38Z" fill="#fff"/>
<path d="M10 50H8V52H10V50Z" fill="#fff"/>
<path d="M14 50H12V52H14V50Z" fill="#fff"/>
<path d="M18 50H16V52H18V50Z" fill="#fff"/>
<path d="M10 46H8V48H10V46Z" fill="#fff"/>
<path d="M14 46H12V48H14V46Z" fill="#fff"/>
<path d="M18 46H16V48H18V46Z" fill="#fff"/>
<path d="M22 50H20V52H22V50Z" fill="#fff"/>
<path d="M22 46H20V48H22V46Z" fill="#fff"/>
<path d="M26 50H24V52H26V50Z" fill="#fff"/>
<path d="M26 46H24V48H26V46Z" fill="#fff"/>
</svg>
