<?xml version="1.0" encoding="iso-8859-1"?>
<!-- Generator: Adobe Illustrator 19.0.0, SVG Export Plug-In . SVG Version: 6.00 Build 0)  -->
<svg version="1.1" id="Layer_1" xmlns="http://www.w3.org/2000/svg" xmlns:xlink="http://www.w3.org/1999/xlink" x="0px" y="0px"
	 viewBox="0 0 512 512" style="enable-background:new 0 0 512 512;" xml:space="preserve">
<g>
	<g>
		<path d="M305.977,330.413c-10.153-3.174-18.439-10.65-22.728-20.25H26.799V121.992h258.574c3.35-8.411,8.4-15.97,14.741-22.232
			c-0.169-0.008-0.335-0.026-0.505-0.026H15.67c-6.145,0-11.129,4.982-11.129,11.129v210.43c0,6.146,4.983,11.129,11.129,11.129
			h94.385l-49.632,86.696c-2.749,4.801-1.085,10.921,3.716,13.668c4.803,2.751,10.921,1.084,13.668-3.716l55.33-96.648h49.006
			l55.329,96.648c2.749,4.803,8.869,6.464,13.668,3.716c4.8-2.748,6.465-8.867,3.716-13.668l-49.631-86.696h94.383
			C301.978,332.422,304.172,331.675,305.977,330.413z"/>
	</g>
</g>
<g>
	<g>
		<path d="M400.357,0c-23.274,0-42.14,18.867-42.14,42.14c-0.001,23.316,18.919,42.141,42.14,42.141
			c23.102,0,42.14-18.728,42.14-42.14C442.497,18.867,423.63,0,400.357,0z"/>
	</g>
</g>
<g>
	<g>
		<path d="M507.456,338.022c0-4.627-3.752-8.379-8.379-8.379h-3.547v-18.356c5.041-3.809,8.135-9.801,8.102-16.318l-0.75-149.38
			c-0.134-26.399-21.719-47.876-48.118-47.876h-20.841c-2.663,6.959-22.349,58.386-25.206,65.85l5.943-27.995
			c0.417-1.965,0.115-4.016-0.854-5.777l-8.161-14.843l7.256-13.195c1.081-1.964-0.344-4.377-2.589-4.377h-19.913
			c-2.242,0-3.67,2.409-2.589,4.377l7.255,13.195l-8.191,14.898c-0.95,1.727-1.26,3.735-0.876,5.669l5.196,28.048
			c-2.613-6.703-22.124-58.617-24.945-65.85h-20.644c-26.398,0-47.983,21.474-48.118,47.876l-0.752,149.379
			c-0.057,11.23,9.002,20.379,20.231,20.435c0.035,0,0.07,0,0.105,0c11.182,0,20.274-9.037,20.331-20.231l0.751-149.379
			c0.011-2.166,1.772-3.913,3.936-3.906c2.165,0.006,3.915,1.763,3.915,3.926c0.001,50.146,0.009,337.114,0.009,341.786
			c0,13.476,10.924,24.4,24.4,24.4c13.476,0,24.4-10.924,24.4-24.4V292.571h10.534V487.6c0,13.476,10.924,24.4,24.4,24.4
			c13.476,0,24.4-10.924,24.4-24.4v-41.561c-9.731-5.138-16.38-15.358-16.38-27.105v-80.912c0-11.748,6.651-21.967,16.38-27.105
			c0-1.192-0.428-19.04-0.442-165.325c0-2.35,1.905-4.257,4.256-4.257s4.257,1.905,4.257,4.256c0,0.068-0.001,0.136-0.002,0.204
			l0.75,149.38c0.036,6.938,3.626,13.101,8.876,16.69v17.779h-3.438c-4.627,0-8.379,3.752-8.379,8.379v80.912
			c0,4.627,3.752,8.379,8.379,8.379h30.672c4.627,0,8.379-3.752,8.379-8.379v-80.912H507.456z"/>
	</g>
</g>
<g>
	<g>
		<path d="M257.615,245.729h-29.244c-2.168,0-3.926,1.757-3.926,3.926v39.5c0,2.168,1.757,3.926,3.926,3.926h29.244
			c2.168,0,3.926-1.757,3.926-3.926v-39.5C261.542,247.487,259.784,245.729,257.615,245.729z"/>
	</g>
</g>
<g>
	<g>
		<path d="M200.116,216.077h-29.244c-2.168,0-3.926,1.757-3.926,3.926v69.151c0,2.168,1.757,3.926,3.926,3.926h29.244
			c2.168,0,3.926-1.757,3.926-3.926v-69.151C204.042,217.835,202.285,216.077,200.116,216.077z"/>
	</g>
</g>
<g>
	<g>
		<path d="M142.617,186.641h-29.244c-2.168,0-3.926,1.757-3.926,3.926v98.587c0,2.168,1.757,3.926,3.926,3.926h29.244
			c2.168,0,3.926-1.757,3.926-3.926v-98.587C146.543,188.4,144.786,186.641,142.617,186.641z"/>
	</g>
</g>
<g>
	<g>
		<path d="M85.119,153.762H55.873c-2.168,0-3.926,1.757-3.926,3.926v131.467c0,2.168,1.757,3.926,3.926,3.926h29.245v-0.001
			c2.168,0,3.926-1.757,3.926-3.926V157.689C89.045,155.521,87.288,153.762,85.119,153.762z"/>
	</g>
</g>
<g>
</g>
<g>
</g>
<g>
</g>
<g>
</g>
<g>
</g>
<g>
</g>
<g>
</g>
<g>
</g>
<g>
</g>
<g>
</g>
<g>
</g>
<g>
</g>
<g>
</g>
<g>
</g>
<g>
</g>
</svg>
