<?xml version="1.0" encoding="iso-8859-1"?>
<!-- Generator: Adobe Illustrator 19.0.0, SVG Export Plug-In . SVG Version: 6.00 Build 0)  -->
<svg version="1.1" id="Layer_1" xmlns="http://www.w3.org/2000/svg" xmlns:xlink="http://www.w3.org/1999/xlink" x="0px" y="0px"
	 viewBox="0 0 490 490" style="enable-background:new 0 0 490 490;" xml:space="preserve">
<g>
	<g>
		<g>
			<path d="M0,480c0,5.522,4.477,10,10,10h340c22.056,0,40-17.944,40-40V273H0V480z M320,420h20v20h-20V420z M290,420h20v20h-20V420
				z M50,385h60v20H50V385z M50,420h80v20H50V420z"/>
			<path d="M350,0H10C4.477,0,0,4.477,0,10v79h390V40C390,17.944,372.056,0,350,0z"/>
			<rect y="111" width="390" height="140"/>
		</g>
	</g>
</g>
<g>
	<g>
		<g>
			<polygon points="420,112 420,370 430,370 440,370 470,370 480,370 490,370 490,112 			"/>
			<path d="M420,450c0,5.522,4.477,10,10,10h50c5.523,0,10-4.478,10-10v-58h-70V450z"/>
			<path d="M445,90h20h15h6.666l-22.435-53.846C462.678,32.428,459.037,30,455,30s-7.678,2.428-9.231,6.154L423.333,90H430H445z"/>
		</g>
	</g>
</g>
<g>
</g>
<g>
</g>
<g>
</g>
<g>
</g>
<g>
</g>
<g>
</g>
<g>
</g>
<g>
</g>
<g>
</g>
<g>
</g>
<g>
</g>
<g>
</g>
<g>
</g>
<g>
</g>
<g>
</g>
</svg>
