<?xml version="1.0" encoding="iso-8859-1"?>
<!-- Generator: Adobe Illustrator 18.0.0, SVG Export Plug-In . SVG Version: 6.00 Build 0)  -->
<!DOCTYPE svg PUBLIC "-//W3C//DTD SVG 1.1//EN" "http://www.w3.org/Graphics/SVG/1.1/DTD/svg11.dtd">
<svg version="1.1" id="Capa_1" xmlns="http://www.w3.org/2000/svg" xmlns:xlink="http://www.w3.org/1999/xlink" x="0px" y="0px"
	 viewBox="0 0 460.067 460.067" style="enable-background:new 0 0 460.067 460.067;" xml:space="preserve">
<g id="XMLID_244_">
	<circle id="XMLID_351_" cx="205.809" cy="37.866" r="37.866"/>
	<path id="XMLID_490_" d="M210.295,401.325v36.817c0,12.109,9.816,21.925,21.925,21.925s21.925-9.816,21.925-21.925V403.97H222.39
		C218.075,403.97,213.981,403.018,210.295,401.325z"/>
	<g id="XMLID_880_">
		<path id="XMLID_903_" d="M347.367,298.515c0-5.014-4.065-9.079-9.079-9.079h-19.99c0-8.863,0-14.683,0-23.349
			c0-5.143-3.648-9.434-8.498-10.426c-1.368-0.28-1.209-0.216-11.239-0.216c-0.032-6.426-0.601-119.73-0.626-124.621
			c-0.119-23.721-19.515-43.02-43.237-43.02c-10.17,0-87.895,0-98.086,0c-23.722,0-43.118,19.299-43.237,43.02l-0.674,134.228
			c-0.051,10.09,8.088,18.312,18.179,18.362c0.031,0,0.063,0,0.094,0c10.047,0,18.218-8.12,18.269-18.179l0.674-134.228
			c0.01-1.946,1.592-3.516,3.537-3.51s3.518,1.584,3.518,3.528l0.008,307.118c0,12.109,9.816,21.925,21.925,21.925
			s21.925-9.816,21.925-21.925V394.38c-4.669-5.161-7.518-11.999-7.518-19.49v-76.375c0-7.491,2.849-14.329,7.518-19.49v-11.397
			c0-2.614,2.119-4.733,4.733-4.733s4.733,2.119,4.733,4.733v4.453c3.315-1.523,6.96-2.443,10.799-2.612
			c0-3.575-0.037-4.602,0.16-6.574c1.526-15.301,14.174-28.736,32.492-28.736V130.98c0-2.112,1.712-3.824,3.824-3.823
			s3.823,1.712,3.823,3.824c0,0.009,0,0.018,0,0.026c-0.012,4.836,0.592,117.943,0.625,124.438l-9.616,0.022
			c-5.524,0.013-9.997,4.492-10.002,10.016l-0.021,23.953h-19.99c-5.014,0-9.079,4.065-9.079,9.079v76.375
			c0,5.014,4.065,9.079,9.079,9.079h115.897c5.014,0,9.079-4.065,9.079-9.079V298.515z M297.013,289.436h-33.347V276.73v0h2.552
			c3.389,4.125,8.458,6.683,14.213,6.683c5.658-0.029,10.701-2.628,14.032-6.683h2.55V289.436z"/>
	</g>
</g>
<g>
</g>
<g>
</g>
<g>
</g>
<g>
</g>
<g>
</g>
<g>
</g>
<g>
</g>
<g>
</g>
<g>
</g>
<g>
</g>
<g>
</g>
<g>
</g>
<g>
</g>
<g>
</g>
<g>
</g>
</svg>
