<?xml version="1.0" encoding="iso-8859-1"?>
<!-- Generator: Adobe Illustrator 19.0.0, SVG Export Plug-In . SVG Version: 6.00 Build 0)  -->
<svg version="1.1" id="Layer_1" xmlns="http://www.w3.org/2000/svg" xmlns:xlink="http://www.w3.org/1999/xlink" x="0px" y="0px"
	 viewBox="0 0 330 330" style="enable-background:new 0 0 330 330;" xml:space="preserve">
<g id="XMLID_221_">
	<path id="XMLID_222_" d="M285,250h-29.19l-16.58-49.744C237.187,194.131,231.456,190,225,190h-75v-49.871h75
		c8.283,0,15-6.716,15-15s-6.717-15-15-15h-75V87.42c17.458-6.192,30-22.865,30-42.42c0-24.813-20.188-45-45-45
		c-24.814,0-45,20.188-45,45c0,19.555,12.541,36.228,30,42.42v24.396C68.521,121.24,30,166.277,30,220c0,60.654,49.346,110,110,110
		c39.826,0,75.394-21.537,94.712-54.096C237.434,278.471,241.08,280,245,280h40c8.283,0,15-6.716,15-15S293.283,250,285,250z
		 M140,300c-44.113,0-80-35.888-80-80c0-37.155,25.328-68.595,60-77.483V205c0,8.284,6.715,15,15,15h79.187l4.613,13.84
		C212.189,271.782,178.889,300,140,300z"/>
</g>
<g>
</g>
<g>
</g>
<g>
</g>
<g>
</g>
<g>
</g>
<g>
</g>
<g>
</g>
<g>
</g>
<g>
</g>
<g>
</g>
<g>
</g>
<g>
</g>
<g>
</g>
<g>
</g>
<g>
</g>
</svg>
