<?xml version="1.0" encoding="UTF-8"?>
<svg width="77px" height="69px" viewBox="0 0 77 69" version="1.1" xmlns="http://www.w3.org/2000/svg" xmlns:xlink="http://www.w3.org/1999/xlink">
    <!-- Generator: Sketch 46.2 (44496) - http://www.bohemiancoding.com/sketch -->
    <title>icon/clock</title>
    <desc>Created with Sketch.</desc>
    <defs></defs>
    <g id="Symbols" stroke="none" stroke-width="1" fill="none" fill-rule="evenodd">
        <g id="Bloc/billet/dektop/footer" transform="translate(-477.000000, -125.000000)" fill="#F35950">
            <g id="icon/clock" transform="translate(477.596983, 125.501923)">
                <g id="noun_730981_cc">
                    <g id="Group" fill-rule="nonzero">
                        <path d="M34.4592715,15.1111111 C33.0582941,15.1111111 31.92,16.1661836 31.92,17.4647343 L31.92,36.3748792 C31.92,37.105314 32.2702443,37.8357488 32.970733,38.2415459 L44.6163574,46.3574879 C45.0541628,46.6821256 45.5795293,46.8444444 46.1048958,46.8444444 C46.8929456,46.8444444 47.5934343,46.5198068 48.1188008,45.8705314 C48.9944116,44.8154589 48.7317284,43.3545894 47.5934343,42.5429952 L36.998543,35.2386473 L36.998543,17.4647343 C36.998543,16.1661836 35.8602488,15.1111111 34.4592715,15.1111111 Z" id="Shape"></path>
                        <path d="M71.7766105,26.8377724 L69.0870887,29.472155 C66.8178048,12.842615 52.2775781,0 34.7116395,0 C15.5487973,0 0,15.2300242 0,34 C0,52.7699758 15.5487973,68 34.7116395,68 C45.5537738,68 55.5554327,63.1428571 62.1951894,54.7457627 C63.0356649,53.6755448 62.7835223,52.1937046 61.7749516,51.37046 C60.6823334,50.5472155 59.1694775,50.7941889 58.3290019,51.7820823 C56.1437656,54.5811138 53.5382914,56.8861985 50.6806746,58.6973366 L49.672104,56.968523 C49.3359137,56.3922518 48.5794858,56.2276029 48.0752004,56.5569007 C47.4868676,56.8861985 47.3187725,57.6271186 47.6549627,58.1210654 L48.6635333,59.8498789 C44.7973459,61.8256659 40.5109207,62.9782082 35.9723528,63.1428571 L35.9723528,61.1670702 C35.9723528,60.5084746 35.4680675,60.0145278 34.795687,60.0145278 C34.1233066,60.0145278 33.6190213,60.5084746 33.6190213,61.1670702 L33.6190213,63.1428571 C29.0804534,62.9782082 24.7940282,61.7433414 20.9278408,59.8498789 L21.9364114,58.1210654 C22.2726016,57.5447942 22.1045065,56.8861985 21.5161736,56.5569007 C20.9278408,56.2276029 20.2554603,56.3922518 19.9192701,56.968523 L18.7426044,58.6973366 C15.044512,56.3922518 11.850705,53.2639225 9.49737351,49.6416465 L11.2623721,48.653753 C11.850705,48.3244552 12.0188001,47.5835351 11.6826099,47.0895884 C11.3464197,46.5133172 10.5899917,46.3486683 10.0857064,46.6779661 L8.32070777,47.6658596 C6.30356649,43.9612591 5.12690075,39.6803874 4.95880564,35.2348668 L6.97594692,35.2348668 C7.64832734,35.2348668 8.15261266,34.7409201 8.15261266,34.0823245 C8.15261266,33.4237288 7.64832734,32.9297821 6.97594692,32.9297821 L4.95880564,32.9297821 C5.12690075,28.4842615 6.38761404,24.2857143 8.32070777,20.4987893 L10.0857064,21.4866828 C10.2538015,21.5690073 10.5059442,21.6513317 10.6740393,21.6513317 C11.094277,21.6513317 11.5145148,21.4043584 11.6826099,21.0750605 C12.0188001,20.4987893 11.850705,19.8401937 11.2623721,19.5108959 L9.49737351,18.3583535 C11.850705,14.7360775 15.044512,11.6077482 18.7426044,9.30266344 L19.751175,11.031477 C20.0033177,11.4430993 20.3395079,11.6077482 20.7597456,11.6077482 C20.9278408,11.6077482 21.1799834,11.5254237 21.3480785,11.4430993 C21.9364114,11.1138015 22.1045065,10.3728814 21.7683163,9.87893462 L20.7597456,8.15012107 C24.5418855,6.17433414 28.9123583,5.02179177 33.4509262,4.85714286 L33.4509262,6.83292978 C33.4509262,7.49152542 33.9552115,7.98547215 34.6275919,7.98547215 C35.2999724,7.98547215 35.8042577,7.49152542 35.8042577,6.83292978 L35.8042577,4.85714286 C40.3428255,5.02179177 44.6292508,6.2566586 48.4954382,8.15012107 L47.4868676,9.87893462 C47.1506774,10.4552058 47.3187725,11.1138015 47.9071053,11.4430993 C48.0752004,11.5254237 48.3273431,11.6077482 48.4954382,11.6077482 C48.915676,11.6077482 49.3359137,11.3607748 49.5040088,11.031477 L50.6806746,9.30266344 C54.3787669,11.6077482 57.572574,14.7360775 59.9259054,18.3583535 L58.1609068,19.346247 C57.572574,19.6755448 57.4044788,20.4164649 57.7406691,20.9104116 C57.9928117,21.3220339 58.3290019,21.4866828 58.7492397,21.4866828 C58.9173348,21.4866828 59.1694775,21.4043584 59.3375726,21.3220339 L61.1025712,20.3341404 C62.6994747,23.2978208 63.7920929,26.590799 64.2963782,30.1307506 L60.766381,26.8377724 C59.8418579,25.9322034 58.2449544,25.9322034 57.3204313,26.8377724 C56.3959082,27.7433414 56.3959082,29.3075061 57.3204313,30.2130751 L64.5485209,37.2929782 C64.9687586,37.7046005 65.6411391,37.9515738 66.3135195,37.9515738 C66.9858999,37.9515738 67.5742328,37.7046005 68.0785181,37.2929782 L75.3066077,30.2130751 C76.2311308,29.3075061 76.2311308,27.7433414 75.3066077,26.8377724 C74.298037,25.8498789 72.7851811,25.8498789 71.7766105,26.8377724 Z" id="Shape"></path>
                    </g>
                </g>
            </g>
        </g>
    </g>
</svg>