<svg xmlns="http://www.w3.org/2000/svg" viewBox="0 0 644.03 236.39"><defs><style>.cls-1{fill:none;}.cls-2,.cls-3{fill:#fff;}.cls-3{fill-rule:evenodd;}</style></defs><title>Fichier 1</title><g id="Calque_2" data-name="Calque 2"><g id="Logo"><rect class="cls-1" width="644.03" height="236.39"/><path class="cls-2" d="M300.91,104c0,17.17-13.81,31-31.63,31H255.73v28.4H235.07V73h34.21C287.1,73,300.91,86.82,300.91,104Zm-20.65,0c0-6.58-4.65-11.61-11-11.61H255.73v23.23h13.55C275.61,115.61,280.26,110.58,280.26,104Z"/><path class="cls-2" d="M510.77,73v90.37H490.12V73Z"/><path class="cls-2" d="M421.79,135v28.36H401.14V73h36.15a30.9,30.9,0,0,1,31,31c0,11.11-6.42,22-16.4,26.66l19,32.73h-22.2L432.37,135Zm0-18.08h15.5c5.68,0,10.32-5.32,10.32-12.28S443,92.38,437.29,92.38h-15.5Z"/><path class="cls-3" d="M328.2,147.49a65.58,65.58,0,0,0,32.46,0l5.07,15.89h22.58L357.6,73H331.26l-30.72,90.37h22.58Zm5.55-17.38a43.23,43.23,0,0,0,21.36,0L344.43,96.64Z"/><path class="cls-2" d="M563.22,91.34c9,0,12.69,4.84,15.81,9.33l17.24-9.07c-2.86-5.66-11.3-20.4-33-20.4-15.28,0-30.34,9.73-30.34,27.5,0,21.34,20.29,25.26,26.6,27.5s18.71,3.8,18.71,11.49c0,5.35-5.61,7.37-12.91,7.37-8.14,0-14.64-4.46-18.57-11.42l-17.57,9.21c1.34,3.76,11.55,22.33,36.14,22.33,19.32,0,33.57-10.15,33.57-27.75,0-13.92-7.59-21.6-25.65-26.94-14-4.16-19.66-6.56-19.66-12.31C553.54,93.9,557.66,91.34,563.22,91.34Z"/><path class="cls-2" d="M202.63,131.84c-.56,0-1,.53-1.66,1.94-14.42,31.57-41,46.7-69.14,46.91-56.05.42-69.26-45.7-69.61-47l28.61,5.35c.14.31,11.09,25.48,40,25.48,30.57,0,51.84-30.5,51.84-62,0-28.37-12-44.61-29.34-57.35L75.45,81.23a.81.81,0,0,0,.16,1.53c43.13,10,50.45,41,48.41,58.56-.3,2.62,1.42,2.18,3.08-2.74,5.87-17.47,1.65-42.89-21.73-57.21l43.28-21.65c5.2,4,22.23,15.51,22.23,42.81s-15.77,52.13-40.06,52.13c-24.13,0-32.53-24.65-32.66-25L46.7,118.45a1.23,1.23,0,0,0-1.52,1.31c4.48,39.26,35.91,71.45,81.46,71.45,37.79,0,63.45-20.79,74.38-50.15C203.54,134.29,203.43,131.85,202.63,131.84Z"/></g></g></svg>