<?xml version="1.0" encoding="utf-8"?>
<!-- Generator: Adobe Illustrator 23.0.2, SVG Export Plug-In . SVG Version: 6.00 Build 0)  -->
<svg version="1.1" id="Layer_1" xmlns="http://www.w3.org/2000/svg" xmlns:xlink="http://www.w3.org/1999/xlink" x="0px" y="0px"
	 viewBox="0 0 155.1171 237.1826" enable-background="new 0 0 155.1171 237.1826" xml:space="preserve">
<g>
	<circle fill="#fff" cx="77.5499" cy="22.5" r="22.5"/>
	<path fill="#fff" d="M7.0176,210.9713l2.6615-3.1812c4.9647,2.7761,13.2462,5.8527,25.2166,5.4615
		c11.0336-0.3605,17.9196-2.8092,22.0044-5.0901l2.8755,3.4373c1.4024,1.6764,3.9218,1.9006,5.5979,0.4982
		c1.6765-1.4025,1.9008-3.9216,0.4984-5.5981l-3.1492-3.7645c2.2023-4.7578,9.0278-21.4694,2.1529-32.8487
		c-8.0878-13.3863-19.3127-16.454-23.9142-20.2189c-0.6698-0.548-1.2399-1.013-1.7355-1.4319
		c-0.7961,0.2521-1.6302,0.4219-2.501,0.473c-0.2051,0.0122-0.4092,0.0176-0.6104,0.0176c-2.2112,0-4.2621-0.7117-5.9474-1.9109
		c-1.8518,2.0115-5.5517,3.5963-9.0761,6.6172c-5.8565,5.0199-13.2469,9.6214-17.8485,18.5457
		c-4.0023,7.7618-0.5164,25.9595,0.46,30.5698l-2.7811,3.3243c-1.4025,1.6765-1.1782,4.1956,0.4984,5.5981
		C3.0958,212.8719,5.6152,212.6476,7.0176,210.9713z M36.9529,184.8262c-1.0009-0.7823-1.5891-1.1116-5.0615-2.84
		c-5.7675-2.8813-7.5919-4.8569-7.5919-8.1908c0-3.7861,3.2371-6.5853,8.2986-7.12v-2.5521h3.1187v2.5521
		c3.0606,0.2467,5.6498,1.2345,7.9448,3.0455l-4.0607,2.7988c-1.5891-1.5226-3.1774-2.1403-5.2968-2.1403
		c-2.648,0-4.296,1.1937-4.296,3.1281c0,1.0703,0.5294,2.0581,1.5303,2.7987c0.8824,0.6586,1.295,0.8644,4.6489,2.4695
		c6.2977,3.0872,8.2398,5.1861,8.2398,8.8489c0,4.075-3.1783,6.709-8.7104,7.2029v3.1281h-3.1187v-3.1281
		c-3.3547-0.2884-6.4153-1.6463-8.8281-3.9103l4.0607-2.675c2.5303,2.1815,4.1195,2.8809,6.591,2.8809
		c2.5312,0,4.1203-1.2758,4.1203-3.2927C38.542,186.7192,37.9529,185.6489,36.9529,184.8262z"/>
	<path fill="#fff" d="M25.3063,125.6603c-4.6221-1.358-9.7507-2.8586-11.2222-1.093c-2.2214,2.6656,5.83,7.3233,11.6135,11.8205
		C25.5079,132.7065,25.3754,129.1259,25.3063,125.6603z"/>
	<path fill="#fff" d="M50.4781,127.914c0.0858-1.3937-1.9117-2.8983-4.5997-4.1086c0.0485,3.2172,0.1533,6.5484,0.3159,9.9935
		C48.4729,131.8522,50.356,129.8965,50.4781,127.914z"/>
	<path fill="#fff" d="M137.7281,127.914c0.1185-1.9249-3.7326-4.0602-7.8967-5.3389c-0.0432,4.6534-0.2017,9.5206-0.4737,14.5972
		C132.9552,134.1068,137.5354,131.0436,137.7281,127.914z"/>
	<path fill="#fff" d="M124.9555,146.7997c-1.6891,1.2082-3.7478,1.9256-5.968,1.9256c-0.2031,0-0.4043-0.0054-0.6084-0.0176
		c-0.8907-0.0519-1.7532-0.2266-2.5803-0.4938c-1.9971,1.4548-4.7773,2.92-7.4579,5.2176
		c-5.8565,5.0199-13.2469,9.6214-17.8485,18.5457c-4.0023,7.7618-0.5164,25.9595,0.46,30.5698l-2.7811,3.3243
		c-1.4025,1.6765-1.1782,4.1956,0.4984,5.5981c1.6761,1.4025,4.1955,1.1782,5.5979-0.4982l2.6615-3.1812
		c4.9647,2.7761,13.2462,5.8527,25.2166,5.4615c11.0336-0.3605,17.9196-2.8092,22.0044-5.0901l2.8755,3.4373
		c1.4024,1.6764,3.9218,1.9006,5.5979,0.4982c1.6765-1.4025,1.9008-3.9216,0.4984-5.5981l-3.1492-3.7645
		c2.2023-4.7578,9.0278-21.4694,2.1529-32.8487c-8.0878-13.3863-19.3127-16.454-23.9142-20.2189
		C126.6646,148.4012,125.6047,147.5479,124.9555,146.7997z M130.9115,169.7208l-4.0607,2.7988
		c-1.5891-1.5226-3.1774-2.1403-5.2968-2.1403c-2.648,0-4.296,1.1937-4.296,3.1281c0,1.0703,0.5294,2.0581,1.5303,2.7987
		c0.8824,0.6586,1.295,0.8644,4.6489,2.4695c6.2977,3.0872,8.2398,5.1861,8.2398,8.8489c0,4.075-3.1783,6.709-8.7104,7.2029v3.1281
		h-3.1187v-3.1281c-3.3547-0.2884-6.4153-1.6463-8.8281-3.9103l4.0607-2.675c2.5303,2.1815,4.1195,2.8809,6.591,2.8809
		c2.5312,0,4.1203-1.2758,4.1203-3.2927c0-1.1111-0.5891-2.1815-1.5891-3.0042c-1.0009-0.7823-1.5891-1.1116-5.0615-2.84
		c-5.7675-2.8813-7.5919-4.8569-7.5919-8.1908c0-3.7861,3.2371-6.5853,8.2986-7.12v-2.5521h3.1187v2.5521
		C126.0273,166.9221,128.6165,167.9099,130.9115,169.7208z"/>
	<path fill="#fff" d="M101.3341,124.5674c-1.7313,2.0775,2.7798,5.3656,7.5922,8.8441c0.1389-3.035,0.2299-5.9332,0.2782-8.7031
		C105.6874,123.7728,102.4529,123.2249,101.3341,124.5674z"/>
	<path fill="#fff" d="M29.2922,92.1531c-1.8379,12.7104-2.2275,28.436-1.1563,46.7397c0.249,4.252,3.7744,7.5327,7.9785,7.5327
		c0.1572,0,0.3164-0.0044,0.4756-0.0137c4.4102-0.2583,7.7764-4.043,7.5186-8.4536c-1.0078-17.229-0.665-31.8696,1.0195-43.5142
		c0.0002-0.0014,0.0002-0.0028,0.0004-0.0042c0.3201-2.2112,0.6813-4.2476,1.0722-6.1356
		c1.2189-5.8873,2.7393-10.2618,4.3043-13.4717v33.0472v16.0023c0.3187,0.2573,0.6181,0.5184,0.8708,0.7871
		c1.2461,1.3247,1.4482,2.5723,1.3984,3.3857c-0.1068,1.7274-0.9955,3.2924-2.2692,4.764v19.938
		c5.0737,3.0607,11.3309,7.6499,16.3395,15.9391c6.8887,11.4019,1.3047,27.3154-1.4365,33.6641l2.2275,2.6631
		c2.2197,2.6533,1.8672,6.6177-0.7861,8.8374c-1.123,0.9399-2.5518,1.4575-4.0205,1.4575c0,0,0,0-0.001,0
		c-1.8682,0-3.624-0.8179-4.8164-2.2437l-1.6943-2.0249c-1.5684,0.7498-3.4933,1.5138-5.8122,2.1967v11.5731
		c0,6.8301,5.5371,12.3633,12.3633,12.3633c6.8281,0,12.3652-5.5332,12.3652-12.3633v-90.2715h4.6348v90.2715
		c0,6.8301,5.5371,12.3633,12.3633,12.3633c6.8281,0,12.3652-5.5332,12.3652-12.3633v-11.3722
		c-2.788-0.8236-5.1558-1.7953-7.095-2.757l-1.4707,1.7573c-1.1924,1.4258-2.9482,2.2432-4.8164,2.2432
		c-1.4697,0-2.8975-0.5176-4.0205-1.4575c-1.2822-1.0718-2.0703-2.5835-2.2197-4.2559c-0.1484-1.6729,0.3604-3.2998,1.4336-4.582
		l2.0674-2.4712c-1.5195-7.5059-4.0078-23.2813-0.0273-31.001c3.9014-7.5679,9.6797-12.1938,14.7773-16.2759
		c0.4698-0.376,0.9202-0.7395,1.3714-1.1041v-20.4652c-3.5038-2.6602-5.6212-4.7115-5.9085-6.9981
		c-0.1387-1.0972,0.166-2.1289,0.8789-2.9844c0.9014-1.0825,2.3232-1.6313,4.2236-1.6313c0.259,0,0.532,0.0173,0.806,0.0358
		v-13.6201V74.7916c2.821,5.8669,5.4456,15.4935,6.4832,30.6263c0.6067,8.8489,0.672,19.5748-0.0865,32.5403
		c-0.2578,4.4106,3.1084,8.1958,7.5195,8.4536c0.1592,0.0093,0.3164,0.0137,0.4746,0.0137c4.2041,0,7.7295-3.2813,7.9785-7.5327
		c0.8054-13.7668,0.7818-25.9637-0.0548-36.5856c-1.7307-21.9744-6.9589-37.1729-15.6503-45.3392
		c-5.627-5.2866-11.1234-6.1844-13.9312-6.2465c-0.1535-0.0091-0.3057-0.0233-0.4615-0.0233H58.2335
		c-0.1106,0-0.2181,0.012-0.3276,0.0165c-5.3149,0.0591-21.0186,3.0307-27.4724,34.8511c-0.4196,2.0684-0.8022,4.2513-1.1381,6.5708
		C29.2947,92.1423,29.293,92.1475,29.2922,92.1531z M77.5499,123.3818l-9.5-12l5.4715-40.3214
		c1.2974,0.4862,2.662,0.7402,4.0266,0.7394h0.0019c0,0,0.004,0,0.0059,0c1.3631,0,2.7254-0.2543,4.0208-0.7404l5.4734,40.3224
		L77.5499,123.3818z M73.7492,58.8818h3.8007h3.7989l1.9004,7.5l-0.2888,0.4559c-1.566,1.3057-3.4844,1.9604-5.4124,1.9621
		c-1.9279-0.0017-3.8429-0.6548-5.4077-1.9577l-0.2916-0.4603L73.7492,58.8818z"/>
</g>
</svg>
