<?xml version="1.0" encoding="UTF-8" standalone="no"?> <svg id="Layer_1" data-name="Layer 1" xmlns="http://www.w3.org/2000/svg" viewBox="0 0 128 128"><defs><style>.cls-1{fill:#fff;}</style></defs><title>x</title><path class="cls-1" d="M115.68473,1.72924H24.30589A7.97542,7.97542,0,0,0,16.33167,9.706v8.85034H9.9416a5.60309,5.60309,0,1,0,0,11.20619h6.39007V58.39691H9.9416a5.60309,5.60309,0,1,0,0,11.20619h6.39007V98.23745H9.9416a5.60309,5.60309,0,0,0,0,11.20619h6.39007v8.85288a7.9749,7.9749,0,0,0,7.97422,7.97424h91.37884a7.97543,7.97543,0,0,0,7.97676-7.97424V9.706A7.976,7.976,0,0,0,115.68473,1.72924ZM37.575,100.71045a145.23146,145.23146,0,0,1,1.26068-16.738,6.65708,6.65708,0,0,1,3.58089-4.82885c6.23218-3.10717,19.90882-7.69406,19.90882-7.69406V66.934l-.37948-.28525A13.09156,13.09156,0,0,1,56.98212,58.346l-.0764-.48391h-.37183A5.04532,5.04532,0,0,1,51.868,54.72432a5.494,5.494,0,0,1-.6902-2.66656,5.0569,5.0569,0,0,1,.35912-1.872,2.60056,2.60056,0,0,1,1.01365-1.62743l1.2607-.76406-.31582-1.37276c-2.27435-9.93021,5.41718-18.885,15.75744-19.12694.24959-.00508.49663-.00508.74623-.00508.24194,0,.49154,0,.74623.00508,10.33262.242,18.03177,9.19673,15.75233,19.12694L86.187,47.79432l1.2607.76406a2.65525,2.65525,0,0,1,1.01365,1.62743,5.15814,5.15814,0,0,1,.354,1.872,5.54606,5.54606,0,0,1-.68511,2.66656,5.04708,5.04708,0,0,1-4.671,3.13773h-.37438L83.011,58.346a13.06329,13.06329,0,0,1-4.95873,8.30276l-.37948.28525v4.5156s13.67155,4.58688,19.90371,7.69406a6.66336,6.66336,0,0,1,3.586,4.82885,144.531,144.531,0,0,1,1.25305,16.738Z"/></svg>