<?xml version="1.0" encoding="UTF-8" standalone="no"?> <svg width="64" height="64" viewBox="0 0 64 64" fill="" xmlns="http://www.w3.org/2000/svg">
<path d="M57 2H17C15.6739 2 14.4021 2.52678 13.4645 3.46447C12.5268 4.40215 12 5.67392 12 7V20H7C5.67392 20 4.40215 20.5268 3.46447 21.4645C2.52678 22.4021 2 23.6739 2 25V51C2 52.3261 2.52678 53.5979 3.46447 54.5355C4.40215 55.4732 5.67392 56 7 56H27.75L38.52 61.88C38.6728 61.962 38.8442 62.0033 39.0176 61.9998C39.191 61.9963 39.3606 61.9481 39.51 61.86C39.6585 61.7706 39.7815 61.6446 39.8673 61.494C39.9531 61.3434 39.9988 61.1733 40 61V56H47C48.3261 56 49.5979 55.4732 50.5355 54.5355C51.4732 53.5979 52 52.3261 52 51V38H57C58.3261 38 59.5979 37.4732 60.5355 36.5355C61.4732 35.5979 62 34.3261 62 33V7C62 5.67392 61.4732 4.40215 60.5355 3.46447C59.5979 2.52678 58.3261 2 57 2V2ZM50 51C49.9976 51.7949 49.6808 52.5566 49.1187 53.1187C48.5566 53.6808 47.7949 53.9976 47 54H39C38.7348 54 38.4804 54.1054 38.2929 54.2929C38.1054 54.4804 38 54.7348 38 55V59.32L28.48 54.12C28.3326 54.0404 28.1675 53.9992 28 54H7C6.20508 53.9976 5.4434 53.6808 4.8813 53.1187C4.31921 52.5566 4.00237 51.7949 4 51V25C4.00237 24.2051 4.31921 23.4434 4.8813 22.8813C5.4434 22.3192 6.20508 22.0024 7 22H12V33C12 34.3261 12.5268 35.5979 13.4645 36.5355C14.4021 37.4732 15.6739 38 17 38H24V43C24.0012 43.1733 24.0469 43.3434 24.1327 43.494C24.2185 43.6446 24.3415 43.7706 24.49 43.86C24.6394 43.9481 24.809 43.9963 24.9824 43.9998C25.1558 44.0033 25.3272 43.962 25.48 43.88L36.25 38H50V51ZM60 33C59.9976 33.7949 59.6808 34.5566 59.1187 35.1187C58.5566 35.6808 57.7949 35.9976 57 36H36C35.8325 35.9992 35.6674 36.0404 35.52 36.12L26 41.32V37C26 36.7348 25.8946 36.4804 25.7071 36.2929C25.5196 36.1054 25.2652 36 25 36H17C16.2051 35.9976 15.4434 35.6808 14.8813 35.1187C14.3192 34.5566 14.0024 33.7949 14 33V7C14.0024 6.20508 14.3192 5.4434 14.8813 4.8813C15.4434 4.31921 16.2051 4.00237 17 4H57C57.7949 4.00237 58.5566 4.31921 59.1187 4.8813C59.6808 5.4434 59.9976 6.20508 60 7V33Z" fill="#fff"/>
<path d="M24 7C24 6.73478 23.8946 6.48043 23.7071 6.29289C23.5196 6.10536 23.2652 6 23 6H19C18.2044 6 17.4413 6.31607 16.8787 6.87868C16.3161 7.44129 16 8.20435 16 9V13C16 13.2652 16.1054 13.5196 16.2929 13.7071C16.4804 13.8946 16.7348 14 17 14C17.2652 14 17.5196 13.8946 17.7071 13.7071C17.8946 13.5196 18 13.2652 18 13V9C18 8.73478 18.1054 8.48043 18.2929 8.29289C18.4804 8.10536 18.7348 8 19 8H23C23.2652 8 23.5196 7.89464 23.7071 7.70711C23.8946 7.51957 24 7.26522 24 7Z" fill="#fff"/>
<path d="M57 26C56.7348 26 56.4804 26.1054 56.2929 26.2929C56.1054 26.4804 56 26.7348 56 27V31C56 31.2652 55.8946 31.5196 55.7071 31.7071C55.5196 31.8946 55.2652 32 55 32H51C50.7348 32 50.4804 32.1054 50.2929 32.2929C50.1054 32.4804 50 32.7348 50 33C50 33.2652 50.1054 33.5196 50.2929 33.7071C50.4804 33.8946 50.7348 34 51 34H55C55.7956 34 56.5587 33.6839 57.1213 33.1213C57.6839 32.5587 58 31.7956 58 31V27C58 26.7348 57.8946 26.4804 57.7071 26.2929C57.5196 26.1054 57.2652 26 57 26Z" fill="#fff"/>
<path d="M13 50H9C8.73478 50 8.48043 49.8946 8.29289 49.7071C8.10536 49.5196 8 49.2652 8 49V45C8 44.7348 7.89464 44.4804 7.70711 44.2929C7.51957 44.1054 7.26522 44 7 44C6.73478 44 6.48043 44.1054 6.29289 44.2929C6.10536 44.4804 6 44.7348 6 45V49C6 49.7956 6.31607 50.5587 6.87868 51.1213C7.44129 51.6839 8.20435 52 9 52H13C13.2652 52 13.5196 51.8946 13.7071 51.7071C13.8946 51.5196 14 51.2652 14 51C14 50.7348 13.8946 50.4804 13.7071 50.2929C13.5196 50.1054 13.2652 50 13 50Z" fill="#fff"/>
<path d="M39 52H43C43.7956 52 44.5587 51.6839 45.1213 51.1213C45.6839 50.5587 46 49.7956 46 49V45C46 44.7348 45.8946 44.4804 45.7071 44.2929C45.5196 44.1054 45.2652 44 45 44C44.7348 44 44.4804 44.1054 44.2929 44.2929C44.1054 44.4804 44 44.7348 44 45V49C44 49.2652 43.8946 49.5196 43.7071 49.7071C43.5196 49.8946 43.2652 50 43 50H39C38.7348 50 38.4804 50.1054 38.2929 50.2929C38.1054 50.4804 38 50.7348 38 51C38 51.2652 38.1054 51.5196 38.2929 51.7071C38.4804 51.8946 38.7348 52 39 52Z" fill="#fff"/>
<path d="M29 14C29.2652 14 29.5196 13.8946 29.7071 13.7071C29.8946 13.5196 30 13.2652 30 13C30 12.7348 29.8946 12.4804 29.7071 12.2929C29.5196 12.1054 29.2652 12 29 12H23C22.7348 12 22.4804 12.1054 22.2929 12.2929C22.1054 12.4804 22 12.7348 22 13V27C22 27.2652 22.1054 27.5196 22.2929 27.7071C22.4804 27.8946 22.7348 28 23 28C23.2652 28 23.5196 27.8946 23.7071 27.7071C23.8946 27.5196 24 27.2652 24 27V19.989L29 20C29.2652 20 29.5196 19.8946 29.7071 19.7071C29.8946 19.5196 30 19.2652 30 19C30 18.7348 29.8946 18.4804 29.7071 18.2929C29.5196 18.1054 29.2652 18 29 18L24 17.988V14H29Z" fill="#fff"/>
<path d="M36.961 12.725C36.9013 12.5162 36.7752 12.3325 36.6018 12.2017C36.4284 12.0709 36.2172 12.0001 36 12H35C34.7828 12.0001 34.5716 12.0709 34.3982 12.2017C34.2248 12.3325 34.0987 12.5162 34.039 12.725L30.039 26.725C29.9985 26.8525 29.9839 26.9868 29.9962 27.12C30.0085 27.2532 30.0474 27.3826 30.1106 27.5005C30.1738 27.6185 30.26 27.7225 30.3642 27.8065C30.4683 27.8905 30.5882 27.9527 30.7169 27.9895C30.8455 28.0263 30.9802 28.0369 31.113 28.0207C31.2458 28.0046 31.374 27.9619 31.49 27.8953C31.606 27.8286 31.7075 27.7394 31.7884 27.6329C31.8693 27.5263 31.928 27.4046 31.961 27.275L32.9 24H38.1L39.036 27.275C39.0959 27.4843 39.2224 27.6684 39.3964 27.7992C39.5704 27.9301 39.7823 28.0006 40 28C40.0931 28.0002 40.1857 27.987 40.275 27.961C40.5298 27.888 40.7452 27.7168 40.8738 27.485C41.0025 27.2532 41.0338 26.9799 40.961 26.725L36.961 12.725ZM33.469 22L35.5 14.89L37.531 22H33.469Z" fill="#fff"/>
<path d="M51.293 27.707C51.4816 27.8892 51.7342 27.99 51.9964 27.9877C52.2586 27.9854 52.5094 27.8802 52.6948 27.6948C52.8802 27.5094 52.9854 27.2586 52.9877 26.9964C52.99 26.7342 52.8892 26.4816 52.707 26.293L52.167 25.753C52.71 24.9375 52.9998 23.9797 53 23V17C53 15.6739 52.4732 14.4021 51.5355 13.4645C50.5979 12.5268 49.3261 12 48 12C46.6739 12 45.4022 12.5268 44.4645 13.4645C43.5268 14.4021 43 15.6739 43 17V23C42.9986 23.9034 43.2423 24.7903 43.7052 25.5661C44.1681 26.3419 44.8329 26.9775 45.6287 27.4052C46.4244 27.8329 47.3213 28.0366 48.2238 27.9947C49.1262 27.9527 50.0004 27.6667 50.753 27.167L51.293 27.707ZM48 26C47.2044 26 46.4413 25.6839 45.8787 25.1213C45.3161 24.5587 45 23.7956 45 23V17C45 16.2044 45.3161 15.4413 45.8787 14.8787C46.4413 14.3161 47.2044 14 48 14C48.7957 14 49.5587 14.3161 50.1213 14.8787C50.6839 15.4413 51 16.2044 51 17V23C50.9983 23.4455 50.8957 23.8848 50.7 24.285L49.708 23.293C49.5194 23.1108 49.2668 23.01 49.0046 23.0123C48.7424 23.0146 48.4916 23.1198 48.3062 23.3052C48.1208 23.4906 48.0156 23.7414 48.0133 24.0036C48.0111 24.2658 48.1118 24.5184 48.294 24.707L49.286 25.699C48.8856 25.8952 48.4459 25.9981 48 26V26Z" fill="#fff"/>
</svg>
