<?xml version="1.0" encoding="UTF-8" standalone="no"?> <svg id="Layer_1" data-name="Layer 1" xmlns="http://www.w3.org/2000/svg" viewBox="0 0 128 128"><defs><style>.cls-1{fill:#fff;}</style></defs><title>n</title><polygon class="cls-1" points="44.376 17.226 83.624 17.226 87.896 24.947 96.447 24.947 88.031 9.745 39.969 9.745 31.553 24.947 40.104 24.947 44.376 17.226"/><path class="cls-1" d="M56.59816,81.907a7.40184,7.40184,0,0,0,14.80367,0V71.41832H56.59816Z"/><path class="cls-1" d="M118.99068,30.25774H9.00932A7.90463,7.90463,0,0,0,1.1047,38.16236V67.52544a7.913,7.913,0,0,0,4.58144,7.17724v32.66476a10.9,10.9,0,0,0,10.88769,10.88769h94.85229a10.9,10.9,0,0,0,10.88769-10.88769V74.70273a7.913,7.913,0,0,0,4.58149-7.17728V38.16236A7.90463,7.90463,0,0,0,118.99068,30.25774Zm-4.15841,77.1097a3.40966,3.40966,0,0,1-3.40615,3.40615H16.57383a3.4099,3.4099,0,0,1-3.40615-3.40615V76.24456a319.63565,319.63565,0,0,0,38.94146,3.874V66.92949H75.89081V80.11858a319.63565,319.63565,0,0,0,38.94146-3.874Z"/></svg>